<svg xmlns="http://www.w3.org/2000/svg" width="96.965" height="96.965" viewBox="0 0 96.965 96.965"><path d="M34.35.563A33.788,33.788,0,1,0,68.138,34.35,33.782,33.782,0,0,0,34.35.563Zm19.619,37.6A1.64,1.64,0,0,1,52.334,39.8H39.8V50.326c0,.9-.736,3.643-1.635,3.643H30.535A1.64,1.64,0,0,1,28.9,52.334V39.8H16.366a1.64,1.64,0,0,1-1.635-1.635V30.535A1.64,1.64,0,0,1,16.366,28.9H28.9V16.366a1.64,1.64,0,0,1,1.635-1.635h7.629A1.64,1.64,0,0,1,39.8,16.366V28.9H52.334a1.64,1.64,0,0,1,1.635,1.635Z" transform="matrix(0.695, 0.719, -0.719, 0.695, 49.331, -0.088)" fill="#fff" stroke="#403f3f" stroke-width="1"/></svg>