<svg xmlns="http://www.w3.org/2000/svg" viewBox="0 0 46.603 41.425">
  <path id="Icon_awesome-shopping-cart" data-name="Icon awesome-shopping-cart" d="M42.73,24.379,46.554,7.55a1.942,1.942,0,0,0-1.894-2.372H12.881L12.14,1.553A1.942,1.942,0,0,0,10.237,0h-8.3A1.942,1.942,0,0,0,0,1.942V3.236A1.942,1.942,0,0,0,1.942,5.178H7.6L13.28,32.965a4.531,4.531,0,1,0,5.425.693H35.666a4.53,4.53,0,1,0,5.146-.842l.446-1.964a1.942,1.942,0,0,0-1.894-2.372H17.648l-.53-2.589H40.836A1.942,1.942,0,0,0,42.73,24.379Z" fill="#fff"/>
</svg>
