<svg xmlns="http://www.w3.org/2000/svg" width="37.28" height="33.139" viewBox="0 0 37.28 33.139"><defs><style>.a{fill:#41b075;}</style></defs><path class="a" d="M34.181,19.5,37.241,6.04a1.553,1.553,0,0,0-1.515-1.9H10.3l-.593-2.9A1.553,1.553,0,0,0,8.189,0H1.553A1.553,1.553,0,0,0,0,1.553V2.589A1.553,1.553,0,0,0,1.553,4.142H6.076l4.547,22.229a3.625,3.625,0,1,0,4.339.554H28.531a3.624,3.624,0,1,0,4.116-.673L33,24.681a1.553,1.553,0,0,0-1.515-1.9H14.117l-.424-2.071H32.666A1.553,1.553,0,0,0,34.181,19.5Z"/></svg>