<svg xmlns="http://www.w3.org/2000/svg" viewBox="0 0 34.658 16">
  <path id="Icon_ionic-md-infinite" data-name="Icon ionic-md-infinite" d="M35.6,13.583a8.564,8.564,0,0,0-11.742-.008L22.392,14.9l2.758,2.675,1.417-1.283.008-.008a4.584,4.584,0,0,1,6.283-.008,4.09,4.09,0,0,1,0,5.95,4.584,4.584,0,0,1-6.283.008l-9.017-8.65a8.552,8.552,0,0,0-11.742,0,7.8,7.8,0,0,0,0,11.333,8.552,8.552,0,0,0,11.742,0l3.15-3.008,3.142,3.008a8.553,8.553,0,0,0,11.733.008A7.806,7.806,0,0,0,35.6,13.583ZM14.833,22.225a4.584,4.584,0,0,1-6.283.008,4.09,4.09,0,0,1,0-5.95,4.584,4.584,0,0,1,6.283-.008l3.117,2.983Z" transform="translate(-3.375 -11.25)"/>
</svg>
