<svg xmlns="http://www.w3.org/2000/svg" viewBox="0 0 24 25.6">
  <path id="Icon_awesome-star-of-life" data-name="Icon awesome-star-of-life" d="M23.6,16.722,16.8,12.8l6.8-3.922a.8.8,0,0,0,.293-1.093l-1.6-2.772A.8.8,0,0,0,21.2,4.721L14.4,8.643V.8a.8.8,0,0,0-.8-.8H10.4a.8.8,0,0,0-.8.8V8.643L2.8,4.722a.8.8,0,0,0-1.094.293L.108,7.786A.8.8,0,0,0,.4,8.879L7.2,12.8.4,16.722a.8.8,0,0,0-.293,1.093l1.6,2.772a.8.8,0,0,0,1.094.293l6.8-3.922V24.8a.8.8,0,0,0,.8.8h3.2a.8.8,0,0,0,.8-.8V16.957l6.8,3.922a.8.8,0,0,0,1.094-.293l1.6-2.772A.8.8,0,0,0,23.6,16.722Z" transform="translate(0)"/>
</svg>
