<svg xmlns="http://www.w3.org/2000/svg" viewBox="0 0 34.96 25.25">
  <path id="Icon_awesome-piggy-bank" data-name="Icon awesome-piggy-bank" d="M33.991,14.519H32.2a9.742,9.742,0,0,0-2.27-3.187L31.077,6.75H29.135A5.79,5.79,0,0,0,24.7,8.832a9.626,9.626,0,0,0-1.4-.14H15.539a9.721,9.721,0,0,0-9.517,7.769H3.4a1.458,1.458,0,0,1-1.426-1.748A1.5,1.5,0,0,1,3.46,13.548h.061a.365.365,0,0,0,.364-.364V11.97a.365.365,0,0,0-.364-.364,3.477,3.477,0,0,0-3.49,2.95A3.4,3.4,0,0,0,3.4,18.4H5.827a9.672,9.672,0,0,0,3.885,7.727v4.9a.974.974,0,0,0,.971.971h3.885a.974.974,0,0,0,.971-.971V28.115h7.769v2.913a.974.974,0,0,0,.971.971h3.885a.974.974,0,0,0,.971-.971v-4.9a9.713,9.713,0,0,0,1.9-1.9h2.956a.974.974,0,0,0,.971-.971V15.49A.974.974,0,0,0,33.991,14.519ZM26.221,18.4a.971.971,0,1,1,.971-.971A.974.974,0,0,1,26.221,18.4Z" transform="translate(-0.002 -6.75)"/>
</svg>
