<svg xmlns="http://www.w3.org/2000/svg" viewBox="0 0 24 24">
  <path id="Icon_awesome-wine-bottle" data-name="Icon awesome-wine-bottle" d="M23.781,3.4,20.6.22a.75.75,0,0,0-1.061,0L18.477,1.281a.75.75,0,0,0,0,1.061L14.883,5.935A6,6,0,0,0,8.3,7.212L.879,14.636a3,3,0,0,0,0,4.243l4.243,4.243a3,3,0,0,0,4.243,0L16.789,15.7a6,6,0,0,0,1.276-6.58L21.66,5.523a.75.75,0,0,0,1.061,0l1.061-1.061A.75.75,0,0,0,23.781,3.4ZM8.4,19.842,4.159,15.6,9.879,9.879l4.243,4.243L8.4,19.842Z" transform="translate(-0.001 0)"/>
</svg>
