<svg xmlns="http://www.w3.org/2000/svg" viewBox="0 0 19.648 22.455">
  <path id="Icon_awesome-apple-alt" data-name="Icon awesome-apple-alt" d="M15.387,5.658A4.3,4.3,0,0,1,18.19,7.5,8.219,8.219,0,0,1,19.5,10.92a10.907,10.907,0,0,1-.044,3.772,11.851,11.851,0,0,1-2.1,5.219,5.681,5.681,0,0,1-4.731,2.544,3.326,3.326,0,0,1-1.533-.439,2.476,2.476,0,0,0-2.541,0,3.326,3.326,0,0,1-1.533.439,5.681,5.681,0,0,1-4.731-2.544,11.851,11.851,0,0,1-2.1-5.219A10.907,10.907,0,0,1,.142,10.92,8.219,8.219,0,0,1,1.456,7.5a4.3,4.3,0,0,1,2.8-1.842,7.318,7.318,0,0,1,2.891.307A12.144,12.144,0,0,1,9.823,7.017a12.144,12.144,0,0,1,2.672-1.053,7.322,7.322,0,0,1,2.892-.307Zm-2.409-1.8a3.708,3.708,0,0,1-1.621.833,5.118,5.118,0,0,1-1.533.219l-.657-.044a5.628,5.628,0,0,1,0-1.4,3.912,3.912,0,0,1,1.007-2.412A3.708,3.708,0,0,1,11.794.219,5.118,5.118,0,0,1,13.328,0l.657.044L14.029.7a5.144,5.144,0,0,1-.219,1.535,3.707,3.707,0,0,1-.832,1.623Z" transform="translate(0.001)"/>
</svg>
