<svg xmlns="http://www.w3.org/2000/svg" viewBox="0 0 24 24">
  <path id="Icon_material-grain" data-name="Icon material-grain" d="M15,18a3,3,0,1,0,3,3A3.009,3.009,0,0,0,15,18ZM9,12a3,3,0,1,0,3,3A3.009,3.009,0,0,0,9,12ZM9,24a3,3,0,1,0,3,3A3.009,3.009,0,0,0,9,24ZM27,12a3,3,0,1,0-3-3A3.009,3.009,0,0,0,27,12ZM21,24a3,3,0,1,0,3,3A3.009,3.009,0,0,0,21,24Zm6-6a3,3,0,1,0,3,3A3.009,3.009,0,0,0,27,18Zm-6-6a3,3,0,1,0,3,3A3.009,3.009,0,0,0,21,12ZM15,6a3,3,0,1,0,3,3A3.009,3.009,0,0,0,15,6Z" transform="translate(-6 -6)"/>
</svg>
