<svg xmlns="http://www.w3.org/2000/svg" viewBox="0 0 23.16 23.161">
  <path id="Icon_awesome-carrot" data-name="Icon awesome-carrot" d="M13.492,7.084A5.62,5.62,0,0,0,6.7,8.568l2.5,2.5a.723.723,0,1,1-1.022,1.022L5.9,9.817.105,21.7a1.026,1.026,0,0,0,0,.891,1.017,1.017,0,0,0,1.357.466l6.044-2.95L5.281,17.883a.718.718,0,0,1,0-1.022.726.726,0,0,1,1.022,0l2.579,2.579L13.5,17.186a5.62,5.62,0,0,0,0-10.1Zm4.167-1.579A4.5,4.5,0,0,0,16.287,0a4.481,4.481,0,0,0-.357,6.872l.362.362a4.481,4.481,0,0,0,6.872-.357,4.5,4.5,0,0,0-5.506-1.371Z" transform="translate(-0.003)"/>
</svg>
